<svg xmlns="http://www.w3.org/2000/svg" viewBox="0 0 376.71 339.93"><defs><style>.cls-1{fill:none;}.cls-2{fill:#bcb6ff;}.cls-3{fill:#f6f2ff;}.cls-4{fill:#dcccff;}.cls-5{fill:#46006b;}</style></defs><g id="레이어_2" data-name="레이어 2"><g id="Layer_1" data-name="Layer 1"><path class="cls-1" d="M325.55,238.06a120.39,120.39,0,0,0-2.62-27q-2.62-11.26-8.86-18.46a35.42,35.42,0,0,0-16.72-10.45q-10.5-3.27-26.24-3.27H261.6v112.4H281Q325.55,291.32,325.55,238.06Z"/><path class="cls-1" d="M298.17,161.44a24.54,24.54,0,0,0,11.15-8.66,31.59,31.59,0,0,0,4.92-13.23,93.13,93.13,0,0,0,.82-16.83q-.66-18.63-8.36-25.81t-22.47-7.19H261.6v74.82h16.73Q290.79,164.54,298.17,161.44Z"/><path class="cls-1" d="M210.42,291h0c0-.21,0-.41,0-.62v-1.21h0Z"/><path class="cls-2" d="M210,193.89l.43.45v-119h39.09l-.42-66.57L.33,0,209.39,38.73Z"/><polygon class="cls-2" points="0.27 0.01 0 0 0.27 0.09 0.27 0.01"/><path class="cls-3" d="M171.46,56.91l3.78,234.38,35.18-.33v-1.83h0V194.34l-.43-.45-.63-155.16L.33,0H.27V.09Z"/><path class="cls-4" d="M280.81,305.7H175.47l.49,30.11a253.2,253.2,0,0,0,46.38,4.12c57.31,0,103.87-17.44,104.93-39.09a103.08,103.08,0,0,1-15,2.9A269.41,269.41,0,0,1,280.81,305.7Z"/><path class="cls-4" d="M142.55,324.48l33.27,11.31.13,0-33.4-11.39Z"/><rect class="cls-2" x="130.25" y="178.34" width="16.4" height="24.61" rx="6.14"/><path class="cls-5" d="M370.82,206.93a54.16,54.16,0,0,0-16-20.53,64,64,0,0,0-23.4-11.24,112.57,112.57,0,0,0-28.31-3.43q31.9-3.6,46.38-16.23t14.47-33.28q0-23.59-19-35.24T284.23,75.34H210.45v215c0,.21,0,.41,0,.62h0l-35.18.33L171.46,56.91.27.09,0,0,1.41,276.25l141.14,48.17L176,335.81h0l-.49-30.11H280.81a269.41,269.41,0,0,0,31.42-2,103.08,103.08,0,0,0,15-2.9,95.31,95.31,0,0,0,16.05-5.9,61.2,61.2,0,0,0,23.9-20.21q9.48-13.37,9.49-36.51Q376.71,219.65,370.82,206.93ZM261.6,89.72h22.63q14.76,0,22.47,7.19t8.36,25.81a93.13,93.13,0,0,1-.82,16.83,31.59,31.59,0,0,1-4.92,13.23,24.54,24.54,0,0,1-11.15,8.66q-7.38,3.1-19.84,3.1H261.6Zm0,89.2h9.51q15.75,0,26.24,3.27a35.42,35.42,0,0,1,16.72,10.45q6.23,7.2,8.86,18.46a120.39,120.39,0,0,1,2.62,27q0,53.26-44.6,53.26H261.6Zm-131.35,5.57a6.15,6.15,0,0,1,6.15-6.15h4.11a6.14,6.14,0,0,1,6.14,6.15V196.8a6.14,6.14,0,0,1-6.14,6.15H136.4a6.15,6.15,0,0,1-6.15-6.15Z"/></g></g></svg>