<svg xmlns="http://www.w3.org/2000/svg" viewBox="0 0 991.87 262.55"><defs><style>.cls-1{fill:none;}.cls-2{fill:#bcb6ff;}.cls-3{fill:#f6f2ff;}.cls-4{fill:#dcccff;}.cls-5{fill:#46006b;}</style></defs><g id="레이어_2" data-name="레이어 2"><g id="Layer_1" data-name="Layer 1"><path class="cls-1" d="M371.36,161.24A48.67,48.67,0,0,0,370,154.3c-.57-2-1.2-3.86-1.9-5.68q-4.65-11.15-20.27-11.15-17.73,0-21.74,13.88l-1.26,5.47a45.22,45.22,0,0,0-.95,6.31q-.31,3.59-.53,8.52c-.14,3.29-.21,7.33-.21,12.09s.07,8.8.21,12.09.32,6.17.53,8.63a45,45,0,0,0,.95,6.41l1.26,5.47q4,13.66,21.74,13.67,15.62,0,20.27-11.15,1.05-2.73,1.9-5.68a48.92,48.92,0,0,0,1.37-6.83q.52-3.89.84-9.36t.32-13.25c0-5.18-.11-9.57-.32-13.14S371.71,163.9,371.36,161.24Z"/><path class="cls-1" d="M242.58,148.79a27.51,27.51,0,0,0-12.92-8.08q-8.1-2.52-20.26-2.52h-7.35V225H217q34.44,0,34.44-41.13a93,93,0,0,0-2-20.82A32.82,32.82,0,0,0,242.58,148.79Z"/><path class="cls-1" d="M230.29,124.69a19,19,0,0,0,8.62-6.69,24.5,24.5,0,0,0,3.8-10.22,71,71,0,0,0,.63-13q-.51-14.39-6.46-19.93t-17.35-5.56H202.05v57.8H215Q224.6,127.09,230.29,124.69Z"/><path class="cls-1" d="M162.32,224.73h.23c0-.16,0-.31,0-.47v-.94h-.23Z"/><path class="cls-1" d="M486,161.24a48.67,48.67,0,0,0-1.37-6.94c-.57-2-1.2-3.86-1.9-5.68q-4.65-11.15-20.26-11.15-17.73,0-21.74,13.88-.65,2.75-1.27,5.47a46.76,46.76,0,0,0-.95,6.31q-.32,3.59-.53,8.52c-.14,3.29-.21,7.33-.21,12.09s.07,8.8.21,12.09.32,6.17.53,8.63a46.48,46.48,0,0,0,.95,6.41c.42,1.82.84,3.65,1.27,5.47q4,13.66,21.74,13.67,15.62,0,20.26-11.15,1.05-2.73,1.9-5.68a48.92,48.92,0,0,0,1.37-6.83q.52-3.89.84-9.36t.32-13.25c0-5.18-.1-9.57-.32-13.14S486.33,163.9,486,161.24Z"/><path class="cls-1" d="M920.11,149.25a22.86,22.86,0,0,0-1.06,3.89c-.28,1.47-.53,3.44-.74,5.89s-.35,5.57-.42,9.36-.1,8.48-.1,14.09q0,8.84.1,14.72c.07,3.93.21,7.22.42,9.89a60.54,60.54,0,0,0,.74,6.2,17.4,17.4,0,0,0,1.06,3.68q5.05,11.78,18.15,11.78a24.75,24.75,0,0,0,11.29-2.84,32,32,0,0,0,9.39-7v-74q-10.34-7.35-20.68-7.36Q925,137.47,920.11,149.25Z"/><polygon class="cls-1" points="662.29 172.26 715.23 172.26 688.88 109.67 662.29 172.26"/><path class="cls-2" d="M162,149.54l.53.56V58.19h30.2l-.33-51.41L0,0,161.52,29.91Z"/><polygon class="cls-3" points="0 0 0.88 213.36 1.17 213.39 1.09 213.36 0 0"/><path class="cls-3" d="M135.35,225l27-.25v-1.42h.23V150.1l-.53-.56-.49-119.63L0,0,132.43,44Z"/><path class="cls-4" d="M216.89,236.11H135.53l.37,23.26a195.79,195.79,0,0,0,35.83,3.18c44.26,0,80.22-13.47,81-30.19a79.19,79.19,0,0,1-11.61,2.24A208.59,208.59,0,0,1,216.89,236.11Z"/><path class="cls-4" d="M110.1,250.61l25.7,8.74.1,0-25.8-8.8Z"/><rect class="cls-2" x="100.6" y="137.74" width="12.67" height="19.01" rx="4.75"/><path class="cls-5" d="M958.94,80.06v55.1q-10.55-6.94-20.68-6.94-24.5,0-39,14.51-13.46,13.41-14.3,36.6v-13q0-19.14-13-28.61t-38.31-9.46a41.94,41.94,0,0,0-11.71,1.89,52.61,52.61,0,0,0-12.35,5.47,8.24,8.24,0,0,0-1.26-3.15q-2.12-3.17-6.55-3.16H777.9v96.48L703.32,52.13h-4.81l-74,179.09L592.2,167.55l34.4-38.28H612.67l-59.73,65.62V80.06H520V180.58q-.85-24.21-14.93-37.85-15-14.5-42.63-14.51-27.87,0-42.64,14.51-12.87,12.47-14.68,33.77-1.81-21.3-14.67-33.77-15-14.5-42.64-14.51-27.85,0-42.63,14.51Q292.46,155.06,290.56,176a51,51,0,0,0-4.15-16.21A41.89,41.89,0,0,0,274,144a49.63,49.63,0,0,0-18.08-8.69,87.24,87.24,0,0,0-21.86-2.64q24.64-2.79,35.82-12.53T281.08,94.4q0-18.23-14.69-27.22t-46.86-9h-57V224.25c0,.16,0,.31,0,.47h-.23l-27,.25L132.43,44,0,0,1.09,213.36l.08,0L110.1,250.57l25.8,8.8h0l-.37-23.26h81.36a208.59,208.59,0,0,0,24.27-1.51,79.19,79.19,0,0,0,11.61-2.24,74.39,74.39,0,0,0,12.4-4.56,47.16,47.16,0,0,0,18.45-15.61c3.78-5.31,6.08-12.15,6.94-20.47A69.44,69.44,0,0,0,293.89,208,46.21,46.21,0,0,0,305,226.22a39.32,39.32,0,0,0,18.15,10.2,96.81,96.81,0,0,0,24.69,2.84q28.29,0,42.85-14.3,12.66-12.44,14.46-33.82A69.77,69.77,0,0,0,408.52,208a46.19,46.19,0,0,0,11.08,18.19,39.32,39.32,0,0,0,18.15,10.2,96.89,96.89,0,0,0,24.7,2.84q28.28,0,42.84-14.3,13.87-13.62,14.72-38v43.67a7,7,0,0,0,1.06,3.79c.7,1.12,2.11,1.68,4.22,1.68h27.65V211.5l18.36-20.4L592,231.27a10.45,10.45,0,0,0,3.27,3.89,7.09,7.09,0,0,0,3.69,1h36.49l22.29-53h62.06l20,47.45a10.23,10.23,0,0,0,2.91,4.29q1.63,1.26,7.47,1.26h32.17l-.14-.33a18.48,18.48,0,0,0,3.71.33h24.91V152.83c0-1.4,0-2.74-.11-4s-.18-2.52-.31-3.78q10.33-7.58,21.1-7.58,10.34,0,15.41,8.42T852,173.44v55.1c0,2.94.52,4.94,1.58,6s3.2,1.58,6.44,1.58h24.9V185.34a66.57,66.57,0,0,0,3.43,18.8,54.32,54.32,0,0,0,10.13,18.09,48.57,48.57,0,0,0,37.89,17,31,31,0,0,0,5.8-.63,38.36,38.36,0,0,0,6.54-1.89,39.09,39.09,0,0,0,6.23-3.05,18.86,18.86,0,0,0,4.86-4.1,7.58,7.58,0,0,0,3.27,5,10.19,10.19,0,0,0,5.38,1.47h23.43v-156ZM113.27,152a4.75,4.75,0,0,1-4.75,4.75h-3.17A4.75,4.75,0,0,1,100.6,152v-9.51a4.75,4.75,0,0,1,4.75-4.75h3.17a4.75,4.75,0,0,1,4.75,4.75Zm88.78-82.71h17.48q11.4,0,17.35,5.56t6.46,19.93a71,71,0,0,1-.63,13,24.5,24.5,0,0,1-3.8,10.22,19,19,0,0,1-8.62,6.69q-5.68,2.4-15.32,2.4H202.05ZM217,225H202.05V138.19h7.35q12.15,0,20.26,2.52a27.51,27.51,0,0,1,12.92,8.08,32.82,32.82,0,0,1,6.84,14.26,93,93,0,0,1,2,20.82Q251.44,225,217,225Zm155.2-28q-.31,5.47-.84,9.36a48.92,48.92,0,0,1-1.37,6.83q-.86,3-1.9,5.68Q363.44,230,347.82,230q-17.73,0-21.74-13.67l-1.26-5.47a45,45,0,0,1-.95-6.41c-.21-2.46-.39-5.33-.53-8.63s-.21-7.32-.21-12.09.07-8.8.21-12.09.32-6.13.53-8.52a45.22,45.22,0,0,1,.95-6.31l1.26-5.47q4-13.87,21.74-13.88,15.62,0,20.27,11.15c.7,1.82,1.33,3.72,1.9,5.68a48.67,48.67,0,0,1,1.37,6.94q.52,4,.84,9.36c.21,3.57.32,8,.32,13.14S372.41,193.35,372.2,197Zm114.62,0q-.31,5.47-.84,9.36a48.92,48.92,0,0,1-1.37,6.83q-.86,3-1.9,5.68Q478.06,230,462.45,230q-17.73,0-21.74-13.67c-.43-1.82-.85-3.65-1.27-5.47a46.48,46.48,0,0,1-.95-6.41c-.21-2.46-.39-5.33-.53-8.63s-.21-7.32-.21-12.09.07-8.8.21-12.09.32-6.13.53-8.52a46.76,46.76,0,0,1,.95-6.31q.63-2.73,1.27-5.47,4-13.87,21.74-13.88,15.62,0,20.26,11.15c.7,1.82,1.33,3.72,1.9,5.68a48.67,48.67,0,0,1,1.37,6.94q.52,4,.84,9.36c.22,3.57.32,8,.32,13.14S487,193.35,486.82,197Zm175.47-24.73,26.6-62.59,26.34,62.59Zm296.65,46.6a32,32,0,0,1-9.39,7,24.75,24.75,0,0,1-11.29,2.84q-13.1,0-18.15-11.78a17.4,17.4,0,0,1-1.06-3.68,60.54,60.54,0,0,1-.74-6.2c-.21-2.67-.35-6-.42-9.89s-.1-8.83-.1-14.72q0-8.41.1-14.09c.07-3.79.21-6.9.42-9.36s.46-4.42.74-5.89a22.86,22.86,0,0,1,1.06-3.89q4.85-11.77,18.15-11.78,10.34,0,20.68,7.36Z"/></g></g></svg>